<svg viewBox="0 0 120 120" xmlns="http://www.w3.org/2000/svg" fill-rule="evenodd" clip-rule="evenodd" stroke-linejoin="round" stroke-miterlimit="2">
  <path d="M114.671 110.98c-2.786-5.042-6.654-7.554-11.788-7.554-9.367 0-14.134 6.472-18.185 6.307a4.791 4.791 0 01-4.272-2.438c8.662-2.219 14.743-10.124 14.666-19.066V60.73a19.885 19.885 0 00-8.268-16.224 19.414 19.414 0 008.635-16.188v-5.5L95.33 4.193a1.828 1.828 0 00-.256-.789 1.232 1.232 0 00-.569-.623 1.527 1.527 0 00-1.65 0l-7.332 3.208a18.575 18.575 0 00-18.993.165l-7.058-3.373a1.527 1.527 0 00-1.65 0 1.232 1.232 0 00-.568.623c-.145.24-.233.51-.257.789l-.128 17.214c.031.082.068.161.11.238 0 .403-.11.77-.11 1.173v5.5a19.61 19.61 0 008.634 16.188 19.758 19.758 0 00-8.267 16.224v27.499c-.136 9.404 6.607 17.612 15.857 19.304 9.25 1.692 0 0 0 0 .004.436.097.867.275 1.265a11.848 11.848 0 0011 7.92c7.644.366 12.594-6.307 18.46-6.307a5.896 5.896 0 015.5 3.868 3.545 3.545 0 003.117 1.865c1.92 0 3.505-1.56 3.538-3.478a3.654 3.654 0 00-.312-1.687zM28.508 91.785a3.444 3.444 0 00-3.575 3.425 3.444 3.444 0 003.429 3.428 3.445 3.445 0 003.428-3.425 3.425 3.425 0 00-3.282-3.428z" fill-rule="nonzero"/>
  <path d="M38.793 71.125c3.927-3.198 6.211-8 6.211-13.066 0-4.93-2.165-9.62-5.918-12.82a18.33 18.33 0 004.18-9.166l3.245-18.754c1.265-7.333-1.283-14.006-5.885-14.831-4.601-.825-9.166 4.601-10.504 11.88l-1.833 10.119-1.834-10.047C25.154 7.107 20.461 1.718 15.841 2.524c-4.62.807-7.04 7.498-5.665 14.776l3.373 18.736a18.428 18.428 0 004.308 9.166 16.666 16.666 0 00-5.921 12.668 17.21 17.21 0 006.141 13.255 19.671 19.671 0 00-8.726 16.737c.365 10.215 8.87 18.419 19.09 18.419 10.48 0 19.102-8.622 19.102-19.103 0-6.484-3.3-12.54-8.75-16.053zm-5.5-36.904l3.245-18.754a11.273 11.273 0 012.97-6.306 11.378 11.378 0 01.715 7.076l-3.245 18.754a11.011 11.011 0 01-2.97 6.325 11.354 11.354 0 01-.806-7.076l.091-.019zm-4.858 13.676c.06-.002.123-.002.183-.002 5.531 0 10.083 4.552 10.083 10.083 0 5.531-4.552 10.083-10.083 10.083-5.496 0-10.031-4.493-10.082-9.99-.004-5.442 4.368-9.968 9.808-10.155l.091-.019zm-11.971-31.77a11.272 11.272 0 01.642-6.966 11.37 11.37 0 013.098 6.416l3.355 18.754a11 11 0 01-.642 6.967 11.325 11.325 0 01-3.098-6.417l-3.355-18.754zm12.045 84.715c-.171.007-.343.01-.514.01-7.14 0-13.016-5.877-13.016-13.016 0-7.14 5.876-13.016 13.016-13.016s13.016 5.876 13.016 13.016v.044c.002.105.004.21.004.312 0 6.886-5.62 12.573-12.506 12.65z" fill-rule="nonzero"/>
</svg>
