<?xml version="1.0" encoding="UTF-8" standalone="no"?>
<!DOCTYPE svg PUBLIC "-//W3C//DTD SVG 1.1//EN" "http://www.w3.org/Graphics/SVG/1.1/DTD/svg11.dtd">
<svg width="100%" height="100%" viewBox="0 0 120 120" version="1.1" xmlns="http://www.w3.org/2000/svg" xmlns:xlink="http://www.w3.org/1999/xlink" xml:space="preserve" xmlns:serif="http://www.serif.com/" style="fill-rule:evenodd;clip-rule:evenodd;stroke-linejoin:round;stroke-miterlimit:2;">
    <g transform="matrix(1.83325,0,0,1.83325,-158.483,-77.3687)">
        <path d="M149,102.74C147.48,99.99 145.37,98.62 142.57,98.62C137.46,98.62 134.86,102.15 132.65,102.06C131.689,102.08 130.791,101.568 130.32,100.73C135.045,99.52 138.362,95.208 138.32,90.33L138.32,75.33C138.336,71.827 136.654,68.525 133.81,66.48C136.758,64.514 138.529,61.193 138.52,57.65L138.52,54.65L138.45,44.49C138.437,44.338 138.389,44.191 138.31,44.06C138.25,43.914 138.14,43.793 138,43.72C137.727,43.544 137.373,43.544 137.1,43.72L133.1,45.47C129.896,43.599 125.911,43.633 122.74,45.56L118.89,43.72C118.617,43.544 118.263,43.544 117.99,43.72C117.85,43.793 117.74,43.914 117.68,44.06C117.601,44.191 117.553,44.338 117.54,44.49L117.47,53.88C117.487,53.925 117.507,53.968 117.53,54.01C117.53,54.23 117.47,54.43 117.47,54.65L117.47,57.65C117.48,61.189 119.247,64.501 122.18,66.48C119.327,68.517 117.642,71.825 117.67,75.33L117.67,90.33C117.596,95.46 121.274,99.937 126.32,100.86C131.366,101.783 126.32,100.86 126.32,100.86C126.322,101.098 126.373,101.333 126.47,101.55C127.362,104.101 129.768,105.833 132.47,105.87C136.64,106.07 139.34,102.43 142.54,102.43C143.88,102.437 145.081,103.281 145.54,104.54C145.876,105.165 146.531,105.557 147.24,105.557C148.287,105.557 149.152,104.706 149.17,103.66C149.187,103.344 149.129,103.029 149,102.74Z" style="fill:white;fill-rule:nonzero;"/>
    </g>
    <g transform="matrix(1.83325,0,0,1.83325,-158.483,-77.3687)">
        <path d="M102,92.27C101.973,92.269 101.947,92.268 101.92,92.268C100.894,92.268 100.05,93.112 100.05,94.138C100.05,95.164 100.894,96.008 101.92,96.008C102.945,96.008 103.789,95.165 103.79,94.14C103.796,93.142 102.998,92.308 102,92.27Z" style="fill:white;fill-rule:nonzero;"/>
    </g>
    <g transform="matrix(1.83325,0,0,1.83325,-158.483,-77.3687)">
        <path d="M107.61,81C109.752,79.256 110.998,76.636 110.998,73.873C110.998,71.184 109.817,68.625 107.77,66.88C108.982,65.459 109.772,63.727 110.05,61.88L111.82,51.65C112.51,47.65 111.12,44.01 108.61,43.56C106.1,43.11 103.61,46.07 102.88,50.04L101.88,55.56L100.88,50.08C100.17,46.08 97.61,43.14 95.09,43.58C92.57,44.02 91.25,47.67 92,51.64L93.84,61.86C94.141,63.713 94.955,65.446 96.19,66.86C94.153,68.577 92.971,71.106 92.96,73.77C92.947,76.556 94.176,79.209 96.31,81C93.273,83.03 91.476,86.478 91.55,90.13C91.749,95.702 96.388,100.177 101.963,100.177C107.68,100.177 112.383,95.474 112.383,89.757C112.383,86.22 110.583,82.917 107.61,81ZM104.61,60.87L106.38,50.64C106.543,49.351 107.11,48.147 108,47.2C108.539,48.412 108.676,49.765 108.39,51.06L106.62,61.29C106.469,62.585 105.9,63.797 105,64.74C104.443,63.534 104.289,62.18 104.56,60.88L104.61,60.87ZM101.96,68.33C101.993,68.329 102.027,68.329 102.06,68.329C105.077,68.329 107.56,70.812 107.56,73.829C107.56,76.846 105.077,79.329 102.06,79.329C99.062,79.329 96.588,76.878 96.56,73.88C96.558,70.911 98.943,68.442 101.91,68.34L101.96,68.33ZM95.43,51C95.141,49.728 95.263,48.397 95.78,47.2C96.704,48.155 97.296,49.383 97.47,50.7L99.3,60.93C99.6,62.201 99.477,63.535 98.95,64.73C98.025,63.776 97.432,62.548 97.26,61.23L95.43,51ZM102,97.21C101.907,97.214 101.813,97.216 101.72,97.216C97.825,97.216 94.62,94.01 94.62,90.116C94.62,86.221 97.825,83.016 101.72,83.016C105.615,83.016 108.82,86.221 108.82,90.116C108.82,90.124 108.82,90.132 108.82,90.14C108.821,90.197 108.822,90.254 108.822,90.31C108.822,94.066 105.756,97.168 102,97.21Z" style="fill:white;fill-rule:nonzero;"/>
    </g>
</svg>
